<?xml version="1.0" encoding="utf-8"?>
<!-- Generator: Adobe Illustrator 19.0.0, SVG Export Plug-In . SVG Version: 6.00 Build 0)  -->
<svg version="1.1" id="Layer_1" xmlns="http://www.w3.org/2000/svg" xmlns:xlink="http://www.w3.org/1999/xlink" x="0px" y="0px"
	 viewBox="0 0 92 130" style="enable-background:new 0 0 92 130;" xml:space="preserve">
<style type="text/css">
	.st0{fill:#FFFFFF;}
	.st1{fill:#24BCB4;}
	.st2{fill:#F0618B;}
</style>
<ellipse id="XMLID_3_" class="st0" cx="43.3" cy="31.5" rx="20" ry="20.6"/>
<path id="XMLID_80_" class="st1" d="M42.4,22.6l0.2,0c-0.3-2-1.6-3.7-2.6-4.7c0,0.1,0,0.1,0,0.2V23C41.2,22.5,42.3,22.6,42.4,22.6z"
	/>
<path id="XMLID_77_" class="st1" d="M43.4,20.4v-2.3c0-1.4,0.4-2.3,1.1-2.8c0.7-0.5,1.5-0.8,2.4-0.8v-0.4H36.5v0.4
	c0.9,0,1.8,0.3,2.4,0.8c0.5,0.4,0.8,1,1,1.9c0,0,0,0,0.1,0C40.9,17.8,42.3,18.9,43.4,20.4z"/>
<path id="XMLID_74_" class="st1" d="M42.6,22.7l-0.2,0.1c0,0-1.2,0.6-1.7,3.7c-0.2,0.5-0.4,1-0.7,1.2c0,0,0,0-0.1,0.1v2.1
	c0.4-0.9,0.9-1.6,0.9-1.6C42.5,26.2,42.9,24.3,42.6,22.7z"/>
<path id="XMLID_71_" class="st1" d="M43.5,42.5c0-0.2,0-0.5,0-0.7v-9c-0.9,0-1.2,0.2-1.2,0.2c-0.9,0.3-1.6,0.8-2.1,1.6
	c0,0-0.1,0.1-0.1,0.1v5.5c0,0,0,0,0.1,0.1C40.9,41.2,42,41.9,43.5,42.5z"/>
<path id="XMLID_68_" class="st1" d="M56.7,41.2c-0.4,1.1-0.9,2-1.3,2.6c-0.4,0.6-1,1.1-1.7,1.3c-0.6,0.2-1.3,0.4-2.2,0.4
	c-0.1,0-0.2,0.1-0.3,0.1l0,0c-0.9,0.3-1.8,0.4-2.8,0.4c-1.5,0-3.1-0.3-4.8-1c0,0-2-0.8-3.6-2.5v0.1c0,1.1-0.3,2-0.9,2.6
	c-0.6,0.6-1.3,0.9-2.1,0.9h-0.4v0.4h19.3l1.2-5.3H56.7z"/>
<path id="XMLID_65_" class="st1" d="M43.3,27.4c0,0,0.1-0.1,0.1-0.1V26c-0.8,1.8-1.8,3.3-2.2,3.6c-0.3,0.3-0.7,0.8-1.2,1.6
	c0,0-0.1,0.1-0.1,0.1v0.7c0.5-0.9,1.2-1.9,2-2.8C42.5,28.6,43,28,43.3,27.4z"/>
<path id="XMLID_62_" class="st2" d="M35.5,31.3c0.7,0.8,1.4,1.2,2,1.2c0.4,0,0.7-0.3,0.9-0.6c0,0,0,0,0,0c-1-2.4-4-3.5-4.1-3.5
	l0.1-0.2c2.1,0.5,3.5,1.7,4.2,2.5c-0.1-0.9-0.6-1.6-0.9-2.2l0,0c-2-2.2-5.1-1.1-6-0.7C32.3,28,33.7,28.6,35.5,31.3z"/>
<path id="XMLID_59_" class="st2" d="M40.5,26.4c0.4-2.4,1.2-3.3,1.6-3.6c-0.4,0-1.3,0.1-2.1,0.4c-0.9,0.4-1.5,1-1.9,1.9l0,0
	c-0.1,0.5-0.2,1.1,0,1.7c0.2-0.7,0.7-1.8,1.8-2.7c0.1-0.1,0.3-0.2,0.4-0.3l0.1,0.1c0,0-0.2,0.2-0.4,0.4c-0.5,0.6-1.4,1.9-1.4,3.3
	c0,0,0,0,0,0c0.4,0.3,0.9,0.3,1.3-0.1C40.2,27.3,40.4,26.9,40.5,26.4z"/>
<path id="XMLID_55_" class="st2" d="M43.3,25.7L43.3,25.7c0.6-1.5,1.1-3.5,0.1-4.9c0,0-0.1-0.1-0.1-0.1c-1.1-1.6-2.5-2.6-3.5-3.2
	c-0.2-0.1-0.3-0.2-0.5-0.3c0.2,0.2,0.4,0.4,0.6,0.6c2,2,4.7,6,1,10.7c0,0-0.5,0.8-1,1.7c-0.3,0.7-0.5,1.2-0.6,1.7
	c0.1-0.2,0.3-0.4,0.4-0.7c0.5-0.8,0.9-1.4,1.2-1.7C41.5,29.1,42.6,27.5,43.3,25.7z"/>
<path id="XMLID_19_" class="st2" d="M43.6,44.8c2.7,1.1,5.3,1.3,7.5,0.6l0,0c2.3-0.7,3.7-2.2,4.2-3c-3.5,2.4-9.5,1-9.6,1
	c-0.9-0.2-1.7-0.5-2.4-0.8c-1.5-0.6-2.7-1.4-3.5-2.3c-1.5-1.6-1.8-3.3-1.8-4.4c-0.5,2.4,0.2,4.5,1.9,6.4
	C41.6,44,43.6,44.8,43.6,44.8z"/>
<path id="XMLID_16_" class="st2" d="M42.1,32.9c0,0,0.4-0.2,1.3-0.2c0.6,0,1.2,0,2,0.1c0,0,0.5,0.1,0.7-0.2c0.1-0.1,0.2-0.4,0.2-0.7
	c0-0.1-0.3-0.9,0.1-1.6L46,30l0.2-0.1c0.2-0.1,0.5-0.3,0.5-0.4c0-0.1,0-0.1-0.1-0.2c-0.3-0.2-0.4-0.4-0.4-0.6c0-0.2,0.2-0.3,0.6-0.6
	c0.6-0.3,0.6-0.4,0.6-0.5c0,0-0.1-0.1-0.3-0.1c0,0-1.5-0.4-1.5-1.9l0-0.1l0.1,0c0,0,0.5,0.1,0.8-0.2c0.1-0.1,0.1-0.2,0.2-0.3
	c-0.1,0.1-0.4,0.3-0.6,0.3c-0.2,0-0.3-0.1-0.4-0.3l0,0l0,0c0,0,0.7-2.6-1.5-4.5c0.7,1,1.5,3.3-0.7,6.9c-0.4,0.6-0.8,1.2-1.4,1.9
	c-0.8,1-1.5,2-2.1,3c-1.8,3.1-1.5,4.8-1.2,5.4c0-0.6,0.2-2.1,1.1-3.2C40.5,33.7,41.2,33.1,42.1,32.9z"/>
<g id="XMLID_10_">
	<path id="XMLID_226_" class="st0" d="M21.8,97l-0.4-0.1l-0.1-0.1v-1.4c1.3-1,2.6-1.4,3.8-1.4c0.8,0,1.5,0.2,2.1,0.5
		c0.6,0.3,1,0.7,1.2,1.2c0.2,0.5,0.4,1,0.4,1.7l-0.1,2.2v3.3c0,0.4,0,0.7,0.1,0.8c0.1,0.1,0.1,0.2,0.2,0.2c0.1,0,0.2,0.1,0.5,0.1
		l0.6,0.1l0.1,0.1v0.4l-0.1,0.1c-0.5,0-1-0.1-1.5-0.1c-0.4,0-1,0-1.6,0.1l-0.2-0.2l0-1.8l-2.4,1.9c-0.4,0.2-0.8,0.3-1.3,0.3
		c-0.6,0-1.1-0.1-1.5-0.3c-0.4-0.2-0.7-0.5-1-0.9c-0.2-0.4-0.3-0.8-0.3-1.4c0-1.1,0.3-1.9,1-2.5c0.7-0.6,2.5-1.1,5.5-1.5
		c0-1.1-0.2-1.8-0.7-2.3c-0.5-0.4-1.1-0.7-1.9-0.7c-0.4,0-0.8,0.1-1.2,0.2c-0.3,0.1-0.5,0.2-0.6,0.3C22.4,95.6,22.2,96.1,21.8,97
		L21.8,97z M26.9,98.7c-2.1,0.3-3.3,0.7-3.8,1.1c-0.5,0.4-0.8,1-0.8,1.8c0,1.1,0.6,1.7,1.7,1.7c1,0,1.9-0.6,2.9-1.7V98.7z"/>
	<path id="XMLID_224_" class="st0" d="M35.2,104.6l-0.7-1.7l-0.8-1.9l-2.3-5.2c-0.1-0.3-0.3-0.6-0.4-0.7c-0.1-0.1-0.2-0.2-0.3-0.2
		c-0.1,0-0.4,0-0.7-0.1l-0.1-0.1v-0.5l0.1-0.1c1,0.1,1.8,0.1,2.4,0.1c0.8,0,1.7,0,2.6-0.1l0.1,0.1v0.5L35,94.8
		c-0.8,0-1.2,0.1-1.3,0.2c-0.1,0.1-0.2,0.2-0.2,0.3c0,0.2,0.1,0.7,0.4,1.4l1.3,3.3l1.1,2.5l1.1-2.5l0.9-2.3c0.4-0.9,0.6-1.5,0.7-1.8
		c0.1-0.4,0.2-0.6,0.2-0.7c0-0.1-0.1-0.2-0.2-0.3c-0.2-0.1-0.6-0.1-1.2-0.1l-0.1-0.1v-0.5l0.1-0.1c0.9,0.1,1.6,0.1,2,0.1
		c0.4,0,1,0,2-0.1l0.1,0.1v0.5l-0.1,0.1c-0.4,0-0.7,0.1-0.9,0.2c-0.1,0.1-0.3,0.3-0.4,0.5c-0.1,0.3-0.5,1-1.2,2.4l-1.1,2.3
		c-0.2,0.4-0.8,1.9-1.9,4.5H35.2z"/>
	<path id="XMLID_221_" class="st0" d="M46.8,93.9l0.2,0.1c-0.1,1-0.1,2.2-0.1,3.7v2.5c0,0.2,0,0.7,0,1.6c0,0.9,0.1,1.4,0.1,1.5
		c0,0.1,0.1,0.3,0.1,0.3c0.1,0.1,0.1,0.1,0.2,0.1c0.1,0,0.5,0,1.2,0.1l0.1,0.1v0.5l-0.1,0.1c-0.9-0.1-1.8-0.1-2.6-0.1
		c-0.8,0-1.7,0-2.6,0.1l-0.1-0.1v-0.5l0.1-0.1c0.7,0,1.1-0.1,1.2-0.1c0.1,0,0.2-0.1,0.2-0.1c0.1-0.1,0.1-0.2,0.1-0.3
		c0-0.1,0.1-0.6,0.1-1.4c0-0.8,0-1.4,0-1.8v-2.2c0-0.3,0-0.7,0-1.2c0-0.5-0.1-0.8-0.1-0.9c0-0.1-0.1-0.2-0.2-0.3
		c-0.1-0.1-0.3-0.1-0.6-0.1l-0.9,0l-0.1-0.1v-0.5l0.1-0.1C44.6,94.6,45.8,94.3,46.8,93.9z M45.8,89c0.3,0,0.6,0.1,0.9,0.4
		c0.2,0.2,0.4,0.5,0.4,0.9c0,0.3-0.1,0.6-0.4,0.9c-0.2,0.2-0.5,0.4-0.9,0.4c-0.3,0-0.6-0.1-0.9-0.4c-0.2-0.2-0.4-0.5-0.4-0.9
		c0-0.3,0.1-0.6,0.4-0.9C45.2,89.2,45.5,89,45.8,89z"/>
	<path id="XMLID_219_" class="st0" d="M67.2,92.1c0,0.2,0,0.5-0.1,0.8c-0.1,0.3-0.1,0.4-0.2,0.4c0,0-0.1,0-0.1-0.1c0,0,0,0,0-0.1
		c0.1-0.3,0.2-0.7,0.2-1.1c0-0.6-0.2-1.1-0.5-1.4c-0.4-0.4-0.8-0.5-1.4-0.5c-0.8,0-1.6,0.3-2.4,0.8c0.7,0.5,1,1.1,1,1.7
		c0,1.1-0.7,1.7-2.2,1.9c1.2,0.4,1.8,1.2,1.8,2.3c0,0.8-0.3,1.5-1,2.1c-0.7,0.6-1.5,0.9-2.4,0.9c-0.4,0-0.8-0.1-1.1-0.3
		c-0.3-0.2-0.4-0.5-0.4-0.9c0-0.6,0.3-1.2,0.8-1.8c0.6-0.6,1.1-0.9,1.7-0.9c0.3,0,0.6,0.1,0.8,0.3s0.3,0.4,0.3,0.8
		c0,0.2-0.1,0.4-0.2,0.7c-0.1,0.3-0.2,0.4-0.3,0.4c-0.1,0-0.1,0-0.1-0.1c0,0,0,0,0-0.1c0.2-0.4,0.4-0.7,0.4-1c0-0.3-0.1-0.5-0.3-0.7
		c-0.2-0.2-0.4-0.2-0.7-0.2c-0.5,0-1.1,0.3-1.6,0.8c-0.5,0.6-0.8,1.1-0.8,1.7c0,0.3,0.1,0.6,0.3,0.8c0.2,0.2,0.5,0.3,0.8,0.3
		c0.7,0,1.4-0.4,2-1.1c0.6-0.7,0.9-1.5,0.9-2.3c0-0.8-0.4-1.4-1.1-1.7l-0.4,0c-0.1,0-0.2,0-0.3,0c-0.4,0-0.5-0.1-0.5-0.2
		c0-0.1,0.1-0.1,0.4-0.1c0.2,0,0.5,0,0.8,0.1c0.5-0.2,0.9-0.4,1.2-0.8c0.3-0.4,0.4-0.8,0.4-1.3c0-0.5-0.2-0.9-0.5-1.3
		c-1,0.8-2,2.1-2.9,4.1c-0.6,1.2-1.1,2-1.5,2.5c-0.5,0.5-1.1,1-1.9,1.4c-1,0.5-1.9,0.7-2.7,0.7c-0.6,0-1.2-0.1-1.6-0.4
		s-0.6-0.7-0.6-1.1c0-0.2,0.1-0.4,0.2-0.6c0.1-0.2,0.3-0.3,0.5-0.3c0.3,0,0.4,0.2,0.4,0.5c0,0.2,0,0.3-0.1,0.4
		c-0.1,0.1-0.2,0.2-0.4,0.2c-0.2,0-0.4-0.1-0.4-0.4c0-0.1,0-0.2,0-0.2c-0.1,0-0.1,0.1-0.1,0.4c0,0.4,0.2,0.7,0.6,1
		c0.4,0.3,0.9,0.4,1.5,0.4c1,0,2-0.4,2.8-1.2c0.4-0.3,0.7-0.7,1-1c0.3-0.4,0.9-1.3,1.9-2.8c0.5-0.7,1-1.4,1.7-2.2
		c0.7-0.7,1.2-1.2,1.7-1.6c-0.7-0.6-1.8-0.9-3.3-0.9c-2,0-3.7,0.7-5.2,2.2c-1.2,1.2-1.8,2.3-1.8,3.3c0,0.5,0.2,1,0.5,1.3
		c0.3,0.3,0.8,0.5,1.4,0.5c1,0,1.9-0.5,3-1.4c1-0.9,1.5-1.8,1.5-2.7c0-0.7-0.4-1-1.1-1c-0.7,0-1.5,0.4-2.3,1.2
		c-0.8,0.8-1.2,1.5-1.2,2.2c0,0.2,0.1,0.3,0.2,0.4c0.1,0.1,0.2,0.2,0.4,0.2c0.1,0,0.1,0,0.1,0.1c0,0,0,0.1-0.1,0.1
		c-0.2,0-0.4-0.1-0.6-0.3c-0.2-0.2-0.2-0.5-0.2-0.8c0-0.7,0.4-1.4,1.2-2.1c0.8-0.7,1.6-1,2.5-1c0.8,0,1.2,0.4,1.2,1.1
		c0,0.9-0.5,1.8-1.6,2.8c-1,0.9-2.1,1.4-3.1,1.4c-0.7,0-1.2-0.2-1.6-0.6c-0.4-0.4-0.6-0.9-0.6-1.6c0-1.3,0.8-2.6,2.3-3.7
		c1.5-1.1,3.2-1.7,5-1.7c1.4,0,2.5,0.3,3.5,0.9c0.9-0.5,1.7-0.8,2.5-0.8c0.6,0,1.1,0.2,1.5,0.6C67,90.9,67.2,91.4,67.2,92.1z"/>
	<path id="XMLID_216_" class="st0" d="M68.7,97.2c0,0,0,0.1-0.1,0.2l-0.3,0.4c-1,1.2-1.8,1.8-2.5,1.8c-0.3,0-0.6-0.1-0.8-0.4
		c-0.2-0.2-0.3-0.5-0.3-0.9c0-0.9,0.6-1.6,1.8-2.3c0.6-0.3,1.1-0.5,1.5-0.5c0.2,0,0.3,0.1,0.4,0.2c0.1,0.1,0.2,0.2,0.2,0.4
		c0,0.3-0.2,0.6-0.7,0.9c-0.4,0.2-1.2,0.5-2.2,0.7c-0.3,0.5-0.5,0.9-0.5,1.2c0,0.4,0.2,0.6,0.7,0.6c0.7,0,1.7-0.7,2.8-2.2
		C68.6,97.2,68.6,97.2,68.7,97.2C68.7,97.2,68.7,97.2,68.7,97.2z M68.1,95.9c0-0.2-0.1-0.2-0.2-0.2c-0.3,0-0.6,0.2-1,0.5
		c-0.4,0.3-0.8,0.8-1.2,1.4c0.7-0.2,1.3-0.4,1.7-0.7C67.9,96.5,68.1,96.2,68.1,95.9z"/>
	<path id="XMLID_213_" class="st0" d="M74.5,97.2c0,0.1-0.3,0.6-1,1.4c-0.6,0.7-1,1-1.3,1c-0.2,0-0.4-0.1-0.5-0.2
		c-0.1-0.2-0.2-0.4-0.2-0.6c0-0.3,0.1-0.5,0.2-0.8c-0.5,0.7-0.8,1.1-1.1,1.3c-0.3,0.2-0.5,0.3-0.7,0.3c-0.3,0-0.5-0.1-0.6-0.3
		c-0.2-0.2-0.3-0.5-0.3-0.8c0-0.9,0.6-1.7,1.9-2.4c0.6-0.3,1-0.5,1.4-0.5c0.3,0,0.4,0.1,0.4,0.4c0,0.1,0,0.2-0.1,0.3l0.4-0.7
		c0.1,0,0.3,0,0.4,0c0.1,0,0.3,0,0.5,0l-1.3,2.1c-0.4,0.7-0.7,1.2-0.7,1.4c0,0.2,0.1,0.3,0.3,0.3c0.2,0,0.5-0.2,0.9-0.7
		c0.4-0.4,0.8-1,1.3-1.6C74.4,97.2,74.4,97.2,74.5,97.2C74.5,97.2,74.5,97.2,74.5,97.2z M72.5,96.1c0-0.2-0.1-0.3-0.3-0.3
		c-0.4,0-1,0.4-1.7,1.3c-0.7,0.9-1.1,1.5-1.1,2.1c0,0.3,0.1,0.5,0.4,0.5c0.3,0,0.9-0.5,1.7-1.6C72.2,97,72.5,96.4,72.5,96.1z"/>
	<path id="XMLID_211_" class="st0" d="M79.8,97.2c0,0.1-0.3,0.6-1,1.4c-0.6,0.7-1,1-1.4,1c-0.2,0-0.4-0.1-0.5-0.3
		c-0.1-0.2-0.2-0.4-0.2-0.6c0-0.2,0.1-0.4,0.3-0.8l-0.1,0.2c-0.4,0.6-0.8,0.9-1,1.1c-0.2,0.2-0.4,0.3-0.6,0.3
		c-0.2,0-0.4-0.1-0.5-0.2c-0.1-0.2-0.2-0.4-0.2-0.6c0-0.3,0.1-0.6,0.3-0.9l1.3-2.2c0.2,0,0.3,0,0.4,0c0.1,0,0.3,0,0.5,0l-1.7,2.8
		C75.1,98.7,75,99,75,99.2c0,0.2,0.1,0.3,0.3,0.3c0.5,0,1.2-0.9,2.3-2.7l0.7-1.2c0.1,0,0.3,0,0.4,0c0.1,0,0.3,0,0.5,0L78,97.5
		c-0.5,0.9-0.8,1.4-0.8,1.7c0,0.2,0.1,0.3,0.3,0.3c0.4,0,1-0.6,1.9-1.8l0.2-0.3l0.1-0.2C79.7,97.2,79.8,97.2,79.8,97.2
		C79.8,97.2,79.8,97.2,79.8,97.2z"/>
	<path id="XMLID_209_" class="st0" d="M83.2,95.6l-0.1,0.1h-0.9l-1.6,2.7c-0.2,0.3-0.3,0.6-0.3,0.8c0,0.2,0.1,0.3,0.3,0.3
		c0.4,0,1.2-0.8,2.2-2.3c0,0,0.1-0.1,0.1-0.1c0,0,0,0,0,0c0,0,0,0.1-0.1,0.1l-0.3,0.4c-0.9,1.2-1.6,1.9-2,1.9
		c-0.2,0-0.4-0.1-0.6-0.2c-0.1-0.2-0.2-0.4-0.2-0.6c0-0.3,0.1-0.6,0.4-1.1l1.2-2h-0.7l0.1-0.1h0.7l0.8-1.4c0.1,0,0.3,0.1,0.4,0.1
		c0.1,0,0.3,0,0.4-0.1l-0.8,1.4H83.2z"/>
	<path id="XMLID_206_" class="st0" d="M88.3,97.2c0,0.1-0.3,0.4-0.8,1c-0.6,0.6-1.3,1.2-2.3,1.7l-0.3,0.6c-0.7,1.2-1.4,2.1-2.2,2.8
		c-0.8,0.6-1.4,0.9-2,0.9c-0.2,0-0.4-0.1-0.5-0.2c-0.1-0.1-0.2-0.3-0.2-0.5c0-1,1.1-1.9,3.3-3c0.2-0.1,0.5-0.2,0.8-0.4l0.1-0.1
		l1.3-2.2c-0.5,0.7-0.9,1.1-1.1,1.3c-0.2,0.2-0.4,0.3-0.7,0.3c-0.2,0-0.4-0.1-0.5-0.2C83.1,99.2,83,99,83,98.8
		c0-0.3,0.2-0.7,0.5-1.3l1.1-1.8c0.1,0,0.2,0,0.4,0c0.1,0,0.3,0,0.5,0l-1.4,2.3c-0.4,0.6-0.6,1.1-0.6,1.3c0,0.2,0.1,0.3,0.3,0.3
		c0.5,0,1.3-0.9,2.4-2.7l0.7-1.1c0.1,0,0.2,0,0.4,0c0.1,0,0.3,0,0.5,0c-0.6,0.9-1.4,2.3-2.4,4.1c0.6-0.3,1.1-0.6,1.5-1
		c0.4-0.3,0.8-0.8,1.3-1.5C88.2,97.2,88.2,97.2,88.3,97.2C88.3,97.2,88.3,97.2,88.3,97.2z M84.2,100.3c-0.1,0-0.3,0.2-0.8,0.4
		c-2.2,1.1-3.2,2-3.2,2.9c0,0.4,0.2,0.5,0.6,0.5c0.5,0,1-0.3,1.5-0.8c0.5-0.5,1.1-1.5,1.8-2.9L84.2,100.3z"/>
	<path id="XMLID_203_" class="st0" d="M58.1,101c0.2,0,0.4,0,0.6,0.1c0.4,0.2,0.6,0.5,0.6,1c0,0.5-0.2,0.8-0.6,1
		c-0.2,0.1-0.4,0.1-0.6,0.1h-0.7v0.8h-0.3V101H58.1z M57.5,101.3v1.6h0.7c0.2,0,0.3,0,0.4-0.1c0.3-0.1,0.4-0.4,0.4-0.7
		c0-0.3-0.1-0.6-0.4-0.7c-0.1-0.1-0.3-0.1-0.4-0.1H57.5z"/>
	<path id="XMLID_201_" class="st0" d="M63.7,104.1h-0.4l-1.3-2.4l-1.3,2.4h-0.4l1.5-2.8v0L62,101l0.2,0.4L63.7,104.1z"/>
	<path id="XMLID_199_" class="st0" d="M66.7,102.2c0,0.4-0.1,0.7-0.4,0.9c-0.2,0.1-0.4,0.2-0.5,0.2l0.9,0.9h-0.5l-0.9-0.8L65,103
		h0.6c0.2,0,0.3,0,0.4-0.1c0.3-0.1,0.4-0.4,0.4-0.7c0-0.3-0.1-0.6-0.4-0.7c-0.1-0.1-0.3-0.1-0.4-0.1h-0.7v2.8h-0.3V101h0.2h0.8
		c0.2,0,0.4,0,0.6,0.1C66.5,101.4,66.7,101.7,66.7,102.2z"/>
	<path id="XMLID_197_" class="st0" d="M70.1,103.8v0.3h-2.4V101h0.3v2.8H70.1z"/>
	<path id="XMLID_194_" class="st0" d="M72.7,101c0.4,0,0.8,0.2,1.1,0.5c0.3,0.3,0.5,0.7,0.5,1.1c0,0.4-0.2,0.8-0.5,1.1
		c-0.3,0.3-0.7,0.5-1.1,0.5c-0.4,0-0.8-0.2-1.1-0.5c-0.3-0.3-0.5-0.7-0.5-1.1c0-0.4,0.2-0.8,0.5-1.1C71.9,101.1,72.3,101,72.7,101z
		 M72.7,103.8c0.4,0,0.7-0.1,0.9-0.4c0.2-0.2,0.4-0.6,0.4-0.9c0-0.4-0.1-0.7-0.4-0.9c-0.2-0.2-0.6-0.4-0.9-0.4
		c-0.4,0-0.7,0.1-0.9,0.4c-0.2,0.2-0.4,0.6-0.4,0.9c0,0.4,0.1,0.7,0.4,0.9C72.1,103.7,72.4,103.8,72.7,103.8z"/>
	<path id="XMLID_192_" class="st0" d="M77.5,102.2c0,0.4-0.1,0.7-0.4,0.9c-0.2,0.1-0.4,0.2-0.5,0.2l0.9,0.9h-0.5l-0.9-0.8l-0.3-0.3
		h0.6c0.2,0,0.3,0,0.4-0.1c0.3-0.1,0.4-0.4,0.4-0.7c0-0.3-0.1-0.6-0.4-0.7c-0.1-0.1-0.3-0.1-0.4-0.1h-0.7v2.8h-0.3V101h0.2h0.8
		c0.2,0,0.4,0,0.6,0.1C77.3,101.4,77.5,101.7,77.5,102.2z"/>
	<path id="XMLID_93_" class="st0" d="M8.4,91.4c0-2.8-0.1-3.2-1.7-3.3L6,88c-0.2-0.1-0.1-0.6,0.1-0.7c1.5,0.1,2.4,0.1,3.4,0.1
		c1,0,1.9,0,3.2-0.1c0.2,0.1,0.2,0.6,0.1,0.7l-0.6,0.1c-1.6,0.1-1.6,0.6-1.6,3.3v9.2c0,1.7,0.1,2.3,0.6,2.9c0.3,0.3,0.8,0.6,2.9,0.6
		c2.2,0,2.8-0.1,3.2-0.3c0.5-0.3,1.2-1.3,1.7-2.6c0.2-0.1,0.7,0,0.7,0.2c0,0.3-0.7,3-1.1,3.7c-1.3-0.1-3.9-0.1-6.6-0.1H9.5
		c-1.1,0-2,0-3.4,0.1c-0.2-0.1-0.2-0.5-0.1-0.7l0.8-0.1c1.5-0.2,1.6-0.5,1.6-3.3V91.4z"/>
</g>
</svg>
