<?xml version="1.0" encoding="utf-8"?>
<!-- Generator: Adobe Illustrator 19.0.0, SVG Export Plug-In . SVG Version: 6.00 Build 0)  -->
<svg version="1.1" id="Layer_1" xmlns="http://www.w3.org/2000/svg" xmlns:xlink="http://www.w3.org/1999/xlink" x="0px" y="0px"
	 viewBox="0 0 156 73" style="enable-background:new 0 0 156 73;" xml:space="preserve">
<style type="text/css">
	.st0{fill:#FFFFFF;}
	.st1{fill:#24BCB4;}
	.st2{fill:#F0618B;}
</style>
<g id="XMLID_4_">
	<ellipse id="XMLID_190_" class="st0" cx="22.8" cy="35" rx="18.7" ry="19.2"/>
	<path id="XMLID_187_" class="st1" d="M22,26.7l0.2,0c-0.3-1.9-1.5-3.4-2.5-4.4c0,0.1,0,0.1,0,0.2V27C20.8,26.6,21.9,26.7,22,26.7z"
		/>
	<path id="XMLID_184_" class="st1" d="M22.9,24.6v-2.2c0-1.3,0.3-2.2,1-2.7c0.7-0.5,1.4-0.7,2.3-0.8v-0.3h-9.7V19
		c0.9,0,1.6,0.3,2.3,0.8c0.5,0.4,0.8,1,0.9,1.8c0,0,0,0,0.1,0C20.6,22.2,21.9,23.2,22.9,24.6z"/>
	<path id="XMLID_181_" class="st1" d="M22.2,26.8L22,26.8c0,0-1.1,0.5-1.6,3.4c-0.2,0.5-0.4,0.9-0.6,1.2c0,0,0,0-0.1,0.1v1.9
		c0.4-0.8,0.9-1.5,0.9-1.5C22.1,30.1,22.4,28.3,22.2,26.8z"/>
	<path id="XMLID_178_" class="st1" d="M23,45.3c0-0.2,0-0.4,0-0.7v-8.4c-0.8,0-1.2,0.2-1.2,0.2c-0.8,0.2-1.5,0.7-2,1.5
		c0,0,0,0.1-0.1,0.1v5.2c0,0,0,0,0.1,0.1C20.6,44.1,21.6,44.8,23,45.3z"/>
	<path id="XMLID_175_" class="st1" d="M35.3,44.1c-0.4,1-0.8,1.8-1.2,2.4c-0.4,0.6-0.9,1-1.6,1.3c-0.5,0.2-1.2,0.3-2,0.4
		c-0.1,0-0.2,0.1-0.3,0.1l0,0c-0.8,0.3-1.7,0.4-2.6,0.4c-1.4,0-2.9-0.3-4.5-1c0,0-1.8-0.7-3.4-2.3v0.1c0,1.1-0.3,1.9-0.9,2.5
		c-0.6,0.6-1.2,0.9-2,0.9h-0.4V49h18l1.2-5H35.3z"/>
	<path id="XMLID_172_" class="st1" d="M22.8,31.1c0,0,0-0.1,0.1-0.1v-1.2c-0.7,1.7-1.7,3.1-2,3.4c-0.2,0.2-0.6,0.8-1.1,1.5
		c0,0,0,0.1-0.1,0.1v0.7c0.5-0.8,1.1-1.7,1.9-2.7C22.1,32.3,22.5,31.7,22.8,31.1z"/>
	<path id="XMLID_169_" class="st2" d="M15.5,34.9c0.7,0.8,1.3,1.2,1.9,1.1c0.3,0,0.6-0.2,0.8-0.6c0,0,0,0,0,0
		c-1-2.3-3.8-3.3-3.8-3.3l0-0.2c2,0.4,3.2,1.6,3.9,2.3c-0.1-0.8-0.6-1.5-0.9-2l0,0c-1.9-2-4.7-1-5.6-0.6
		C12.5,31.7,13.8,32.3,15.5,34.9z"/>
	<path id="XMLID_166_" class="st2" d="M20.2,30.2c0.4-2.2,1.1-3.1,1.5-3.4c-0.4,0-1.2,0-1.9,0.4c-0.9,0.4-1.4,1-1.7,1.8l0,0
		c-0.1,0.4-0.2,1,0,1.6c0.2-0.6,0.7-1.6,1.7-2.5c0.1-0.1,0.2-0.2,0.4-0.3l0.1,0.1c0,0-0.2,0.2-0.4,0.4c-0.5,0.6-1.3,1.7-1.3,3.1
		c0,0,0,0,0,0c0.4,0.3,0.8,0.2,1.2-0.1C19.9,31.1,20.1,30.7,20.2,30.2z"/>
	<path id="XMLID_163_" class="st2" d="M22.8,29.6L22.8,29.6c0.5-1.4,1-3.3,0.1-4.6c0,0-0.1-0.1-0.1-0.1c-1-1.5-2.3-2.5-3.2-3
		c-0.2-0.1-0.3-0.2-0.4-0.3c0.2,0.2,0.4,0.3,0.6,0.5c1.8,1.8,4.4,5.6,0.9,10c0,0-0.5,0.7-0.9,1.6c-0.3,0.6-0.5,1.2-0.5,1.6
		c0.1-0.2,0.2-0.4,0.4-0.7c0.5-0.8,0.9-1.3,1.1-1.6C21.1,32.8,22.1,31.3,22.8,29.6z"/>
	<path id="XMLID_160_" class="st2" d="M23.1,47.5c2.6,1,4.9,1.2,7,0.6l0,0c2.1-0.7,3.4-2.1,4-2.8c-3.3,2.2-8.9,1-8.9,1
		c-0.8-0.2-1.6-0.4-2.2-0.7c-1.4-0.6-2.5-1.3-3.3-2.1c-1.4-1.5-1.7-3.1-1.6-4.1c-0.5,2.2,0.1,4.2,1.8,5.9
		C21.3,46.7,23.1,47.4,23.1,47.5z"/>
	<path id="XMLID_157_" class="st2" d="M21.7,36.3c0,0,0.4-0.2,1.2-0.2c0.5,0,1.2,0,1.8,0.1c0,0,0.5,0.1,0.7-0.2
		c0.1-0.1,0.2-0.3,0.2-0.6c0-0.1-0.3-0.8,0.1-1.5l-0.5-0.3l0.1-0.1c0.2-0.1,0.5-0.2,0.5-0.4c0-0.1,0-0.1-0.1-0.2
		c-0.3-0.2-0.4-0.4-0.4-0.5c0-0.2,0.2-0.3,0.6-0.5c0.6-0.3,0.6-0.4,0.6-0.4c0,0-0.1-0.1-0.3-0.1c0,0-1.4-0.4-1.4-1.8l0-0.1l0.1,0
		c0,0,0.5,0.1,0.8-0.2c0.1-0.1,0.1-0.2,0.2-0.3c-0.1,0.1-0.3,0.3-0.5,0.2c-0.2,0-0.3-0.1-0.4-0.3l0,0l0,0c0,0,0.6-2.4-1.4-4.2
		c0.6,0.9,1.4,3-0.7,6.4c-0.3,0.6-0.8,1.2-1.3,1.8c-0.8,1-1.4,1.9-2,2.8c-1.7,2.9-1.4,4.5-1.1,5.1c0-0.6,0.2-1.9,1-3
		C20.2,37,20.8,36.5,21.7,36.3z"/>
</g>
<g id="XMLID_147_">
	<path id="XMLID_153_" class="st0" d="M43.8,36.1L43.1,36l-0.1-0.2v-2.2c2.1-1.6,4.2-2.4,6.2-2.4c1.4,0,2.5,0.3,3.4,0.8
		c0.9,0.5,1.6,1.2,2,1.9c0.4,0.8,0.6,1.7,0.6,2.7l-0.1,3.6v5.4c0,0.7,0.1,1.2,0.2,1.3c0.1,0.2,0.2,0.3,0.4,0.3s0.4,0.1,0.7,0.1
		l1,0.1l0.1,0.2v0.7l-0.1,0.1c-0.9-0.1-1.7-0.1-2.5-0.1c-0.7,0-1.6,0-2.6,0.1l-0.3-0.3l0.1-2.9l-3.9,3.1c-0.7,0.3-1.4,0.4-2.2,0.4
		c-1,0-1.8-0.2-2.5-0.5c-0.7-0.3-1.2-0.8-1.6-1.5c-0.4-0.6-0.6-1.4-0.6-2.3c0-1.8,0.6-3.1,1.7-4.1c1.1-1,4.1-1.8,9.1-2.5
		c0-1.8-0.4-3-1.2-3.8c-0.8-0.7-1.9-1.1-3.2-1.1c-0.7,0-1.3,0.1-1.9,0.3c-0.6,0.2-0.9,0.4-1,0.5c-0.1,0.1-0.4,0.9-1,2.2L43.8,36.1z
		 M52.2,39c-3.4,0.6-5.5,1.2-6.3,1.8c-0.8,0.6-1.2,1.7-1.2,3c0,1.9,0.9,2.8,2.8,2.8c1.6,0,3.2-0.9,4.7-2.8V39z"/>
	<path id="XMLID_151_" class="st0" d="M65.8,48.7l-1.1-2.8l-1.3-3.1l-3.7-8.6c-0.2-0.6-0.5-0.9-0.6-1.1c-0.2-0.2-0.4-0.3-0.6-0.3
		c-0.2,0-0.6-0.1-1.2-0.1l-0.1-0.1v-0.8l0.2-0.2c1.7,0.1,3,0.1,4,0.1c1.4,0,2.8,0,4.2-0.1l0.1,0.1v0.8l-0.1,0.1
		c-1.3,0-2,0.1-2.2,0.3C63.1,33,63,33.2,63,33.4c0,0.4,0.2,1.1,0.7,2.3l2.2,5.5l1.7,4.1l1.8-4.1l1.5-3.7c0.6-1.4,1-2.4,1.1-3
		c0.2-0.6,0.3-1,0.3-1.2c0-0.2-0.1-0.4-0.4-0.5c-0.3-0.1-0.9-0.2-2-0.2l-0.1-0.1v-0.8l0.2-0.2c1.5,0.1,2.6,0.1,3.4,0.1
		c0.6,0,1.7,0,3.2-0.1l0.2,0.2v0.8l-0.1,0.1c-0.7,0.1-1.2,0.2-1.4,0.3c-0.2,0.1-0.5,0.4-0.7,0.8c-0.2,0.4-0.9,1.7-1.9,3.9l-1.7,3.7
		c-0.3,0.6-1.3,3.1-3.1,7.3H65.8z"/>
	<path id="XMLID_148_" class="st0" d="M84.8,31.2l0.3,0.2c-0.1,1.6-0.2,3.6-0.2,6v4.1c0,0.3,0,1.1,0.1,2.6c0,1.4,0.1,2.3,0.2,2.5
		c0.1,0.2,0.1,0.4,0.2,0.5c0.1,0.1,0.2,0.2,0.4,0.2c0.2,0,0.8,0.1,1.9,0.2l0.2,0.1v0.8l-0.1,0.2c-1.5-0.1-3-0.1-4.3-0.1
		c-1.4,0-2.8,0-4.3,0.1l-0.2-0.2v-0.8l0.2-0.1c1.2-0.1,1.8-0.1,2-0.2c0.2,0,0.3-0.1,0.4-0.2c0.1-0.1,0.2-0.3,0.2-0.5
		c0-0.2,0.1-1,0.1-2.3c0.1-1.3,0.1-2.3,0.1-3v-3.6c0-0.5,0-1.1-0.1-2c0-0.8-0.1-1.3-0.1-1.5c0-0.2-0.1-0.3-0.3-0.4
		c-0.2-0.1-0.5-0.1-0.9-0.1l-1.5,0l-0.2-0.1v-0.8l0.1-0.1C81.3,32.3,83.2,31.8,84.8,31.2z M83.3,23.1c0.6,0,1,0.2,1.4,0.6
		c0.4,0.4,0.6,0.9,0.6,1.4c0,0.6-0.2,1-0.6,1.4c-0.4,0.4-0.9,0.6-1.4,0.6c-0.6,0-1-0.2-1.4-0.6c-0.4-0.4-0.6-0.9-0.6-1.4
		c0-0.6,0.2-1,0.6-1.4C82.2,23.3,82.7,23.1,83.3,23.1z"/>
</g>
<g id="XMLID_130_">
	<path id="XMLID_144_" class="st0" d="M118.3,28.1c0,0.4-0.1,0.8-0.2,1.3c-0.1,0.5-0.2,0.7-0.3,0.7c-0.1,0-0.1,0-0.1-0.1
		c0,0,0-0.1,0-0.1c0.2-0.5,0.3-1.1,0.3-1.8c0-1-0.3-1.8-0.9-2.4c-0.6-0.6-1.4-0.9-2.3-0.9c-1.3,0-2.6,0.4-4,1.3
		c1.1,0.8,1.6,1.8,1.6,2.8c0,1.7-1.2,2.8-3.5,3.1c1.9,0.7,2.9,1.9,2.9,3.7c0,1.3-0.6,2.5-1.7,3.5c-1.1,1-2.5,1.5-4,1.5
		c-0.7,0-1.3-0.2-1.7-0.6c-0.4-0.4-0.6-0.9-0.6-1.5c0-1,0.5-2,1.4-3c0.9-1,1.8-1.5,2.8-1.5c0.5,0,0.9,0.2,1.3,0.5
		c0.3,0.3,0.5,0.7,0.5,1.2c0,0.3-0.1,0.7-0.3,1.1c-0.2,0.5-0.3,0.7-0.5,0.7c-0.1,0-0.1,0-0.1-0.1c0,0,0-0.1,0-0.1
		c0.4-0.6,0.6-1.1,0.6-1.6c0-0.4-0.1-0.8-0.4-1.1c-0.3-0.3-0.7-0.4-1.1-0.4c-0.9,0-1.7,0.5-2.6,1.4c-0.8,0.9-1.3,1.9-1.3,2.8
		c0,0.5,0.2,0.9,0.5,1.3c0.3,0.3,0.8,0.5,1.3,0.5c1.2,0,2.3-0.6,3.3-1.7c1-1.2,1.5-2.4,1.5-3.8c0-1.3-0.6-2.2-1.9-2.8l-0.7,0.1
		c-0.2,0-0.4,0-0.6,0c-0.6,0-0.9-0.1-0.9-0.3c0-0.1,0.2-0.2,0.7-0.2c0.4,0,0.8,0.1,1.4,0.2c0.8-0.2,1.4-0.7,1.9-1.3
		c0.5-0.6,0.7-1.3,0.7-2.1c0-0.8-0.3-1.5-0.9-2.1c-1.7,1.3-3.3,3.5-4.8,6.7c-0.9,1.9-1.8,3.3-2.5,4.2c-0.7,0.8-1.8,1.6-3.2,2.3
		c-1.6,0.8-3.1,1.2-4.4,1.2c-1,0-1.9-0.2-2.6-0.7c-0.7-0.5-1-1.1-1-1.8c0-0.4,0.1-0.7,0.4-1c0.2-0.3,0.5-0.4,0.8-0.4
		c0.5,0,0.7,0.3,0.7,0.8c0,0.3-0.1,0.5-0.2,0.7c-0.2,0.2-0.4,0.3-0.6,0.3c-0.4,0-0.6-0.2-0.6-0.6c0-0.2,0-0.3,0-0.3
		c-0.1,0-0.2,0.2-0.2,0.6c0,0.6,0.3,1.2,1,1.6c0.6,0.4,1.4,0.6,2.4,0.6c1.7,0,3.3-0.6,4.6-1.9c0.6-0.5,1.1-1.1,1.6-1.7
		c0.4-0.6,1.5-2.1,3-4.5c0.8-1.2,1.7-2.3,2.8-3.5c1.1-1.2,2-2.1,2.7-2.6c-1.2-1-3-1.6-5.3-1.6c-3.3,0-6.1,1.2-8.6,3.6
		c-2,1.9-3,3.8-3,5.5c0,0.9,0.3,1.6,0.8,2.1c0.6,0.5,1.3,0.8,2.3,0.8c1.6,0,3.2-0.8,4.9-2.3c1.7-1.5,2.5-3,2.5-4.4
		c0-1.1-0.6-1.7-1.7-1.7c-1.2,0-2.4,0.6-3.7,1.9c-1.3,1.3-2,2.5-2,3.6c0,0.3,0.1,0.5,0.3,0.7c0.2,0.2,0.4,0.3,0.7,0.3
		c0.1,0,0.2,0.1,0.2,0.1c0,0.1-0.1,0.1-0.2,0.1c-0.4,0-0.7-0.2-0.9-0.5c-0.3-0.3-0.4-0.8-0.4-1.2c0-1.2,0.7-2.4,2-3.5
		c1.3-1.1,2.7-1.7,4.1-1.7c1.3,0,2,0.6,2,1.9c0,1.5-0.9,3-2.6,4.6c-1.7,1.5-3.4,2.3-5,2.3c-1.1,0-1.9-0.3-2.6-1
		c-0.7-0.7-1-1.5-1-2.6c0-2.2,1.2-4.2,3.7-6c2.5-1.8,5.2-2.7,8.2-2.7c2.3,0,4.2,0.5,5.8,1.5c1.4-0.9,2.8-1.3,4.1-1.3
		c1,0,1.9,0.3,2.5,0.9C118,26.2,118.3,27.1,118.3,28.1z"/>
	<path id="XMLID_141_" class="st0" d="M120.8,36.6c0,0-0.1,0.1-0.2,0.3l-0.5,0.6c-1.6,2-3,3-4.1,3c-0.5,0-1-0.2-1.4-0.6
		c-0.4-0.4-0.6-0.9-0.6-1.5c0-1.4,1-2.6,2.9-3.7c1-0.6,1.9-0.8,2.5-0.8c0.3,0,0.5,0.1,0.7,0.3c0.2,0.2,0.3,0.4,0.3,0.6
		c0,0.6-0.4,1-1.1,1.4c-0.7,0.4-2,0.8-3.7,1.1c-0.5,0.8-0.8,1.5-0.8,2c0,0.7,0.4,1,1.1,1c1.2,0,2.7-1.2,4.5-3.6
		C120.6,36.6,120.7,36.5,120.8,36.6C120.8,36.5,120.8,36.5,120.8,36.6z M119.8,34.4c0-0.2-0.1-0.4-0.4-0.4c-0.4,0-1,0.3-1.6,0.9
		c-0.7,0.6-1.3,1.3-2,2.2c1.1-0.3,2.1-0.7,2.8-1.2C119.4,35.4,119.8,34.9,119.8,34.4z"/>
	<path id="XMLID_138_" class="st0" d="M130.3,36.6c0,0.2-0.6,0.9-1.7,2.3c-0.9,1.1-1.6,1.7-2.2,1.7c-0.4,0-0.7-0.1-0.9-0.4
		c-0.2-0.3-0.3-0.6-0.3-1c0-0.4,0.1-0.9,0.4-1.4c-0.8,1.1-1.4,1.8-1.8,2.2c-0.4,0.4-0.8,0.6-1.2,0.6c-0.4,0-0.8-0.2-1-0.5
		c-0.3-0.4-0.4-0.8-0.4-1.3c0-1.5,1.1-2.8,3.2-4c0.9-0.5,1.7-0.8,2.2-0.8c0.5,0,0.7,0.2,0.7,0.7c0,0.1,0,0.3-0.1,0.5l0.6-1.1
		c0.2,0.1,0.4,0.1,0.6,0.1c0.2,0,0.5,0,0.8-0.1l-2.1,3.4c-0.7,1.2-1.1,2-1.1,2.4c0,0.4,0.2,0.5,0.5,0.5c0.3,0,0.8-0.4,1.5-1.1
		c0.7-0.7,1.4-1.6,2.1-2.6C130.2,36.5,130.2,36.5,130.3,36.6C130.3,36.5,130.3,36.5,130.3,36.6z M127.1,34.6c0-0.4-0.2-0.6-0.5-0.6
		c-0.7,0-1.7,0.7-2.8,2.1c-1.2,1.4-1.7,2.5-1.7,3.4c0,0.5,0.2,0.8,0.7,0.8c0.5,0,1.5-0.9,2.8-2.7C126.6,36.2,127.1,35.2,127.1,34.6z
		"/>
	<path id="XMLID_136_" class="st0" d="M139.1,36.6c0,0.2-0.6,0.9-1.7,2.3c-0.9,1.1-1.7,1.7-2.2,1.7c-0.3,0-0.6-0.1-0.9-0.4
		c-0.2-0.3-0.4-0.6-0.4-1c0-0.3,0.2-0.7,0.5-1.3l-0.2,0.3c-0.7,0.9-1.2,1.5-1.6,1.8c-0.4,0.4-0.7,0.5-1,0.5c-0.3,0-0.6-0.1-0.9-0.4
		c-0.2-0.3-0.4-0.6-0.4-1c0-0.5,0.2-1,0.5-1.6L133,34c0.3,0.1,0.5,0.1,0.6,0.1c0.1,0,0.4,0,0.8-0.1l-2.8,4.6
		c-0.3,0.5-0.4,0.9-0.4,1.2c0,0.4,0.1,0.5,0.4,0.5c0.8,0,2-1.5,3.8-4.4l1.1-1.9c0.2,0.1,0.4,0.1,0.6,0.1c0.2,0,0.5,0,0.8-0.1l-1.9,3
		c-0.9,1.4-1.3,2.4-1.3,2.8c0,0.3,0.2,0.5,0.5,0.5c0.6,0,1.6-1,3-2.9l0.4-0.5l0.2-0.3C139,36.5,139,36.5,139.1,36.6
		C139.1,36.5,139.1,36.5,139.1,36.6z"/>
	<path id="XMLID_134_" class="st0" d="M144.7,33.9l-0.1,0.2h-1.5l-2.6,4.4c-0.3,0.5-0.5,1-0.5,1.3c0,0.4,0.2,0.5,0.5,0.5
		c0.7,0,1.9-1.2,3.6-3.7c0.1-0.1,0.1-0.1,0.1-0.1c0,0,0.1,0,0.1,0.1c0,0,0,0.1-0.1,0.2l-0.5,0.7c-1.5,2-2.6,3.1-3.3,3.1
		c-0.4,0-0.7-0.1-0.9-0.4c-0.2-0.3-0.4-0.6-0.4-1c0-0.5,0.2-1.1,0.6-1.8l2-3.3h-1.2l0.1-0.2h1.2l1.4-2.3c0.2,0.1,0.5,0.1,0.7,0.1
		c0.2,0,0.4,0,0.7-0.1l-1.3,2.3H144.7z"/>
	<path id="XMLID_131_" class="st0" d="M153,36.6c0,0.1-0.4,0.6-1.3,1.6c-1,1-2.2,2-3.7,2.8l-0.6,1c-1.1,2-2.3,3.5-3.5,4.5
		c-1.3,1-2.4,1.5-3.3,1.5c-0.3,0-0.6-0.1-0.8-0.3c-0.2-0.2-0.3-0.5-0.3-0.7c0-1.6,1.8-3.2,5.4-4.9c0.3-0.1,0.7-0.4,1.3-0.6l0.2-0.1
		l2.1-3.7c-0.8,1.1-1.4,1.8-1.8,2.2c-0.4,0.3-0.7,0.5-1.1,0.5c-0.3,0-0.6-0.1-0.8-0.4c-0.2-0.3-0.4-0.6-0.4-1c0-0.4,0.3-1.1,0.8-2.1
		l1.8-3c0.2,0,0.4,0,0.6,0c0.2,0,0.5,0,0.8-0.1l-2.3,3.7c-0.7,1.1-1,1.8-1,2.1c0,0.4,0.2,0.5,0.5,0.5c0.8,0,2.1-1.5,3.9-4.5l1.1-1.8
		c0.2,0,0.4,0,0.7,0c0.2,0,0.5,0,0.8-0.1c-1,1.5-2.3,3.8-3.9,6.7c1-0.5,1.8-1,2.4-1.6c0.7-0.6,1.4-1.4,2.2-2.4
		C152.8,36.6,152.9,36.5,153,36.6C153,36.5,153,36.5,153,36.6z M146.3,41.6c-0.1,0.1-0.6,0.3-1.3,0.7c-3.5,1.8-5.3,3.3-5.3,4.7
		c0,0.6,0.3,0.9,1,0.9c0.8,0,1.6-0.4,2.5-1.3c0.8-0.9,1.8-2.5,3-4.7L146.3,41.6z"/>
</g>
<g id="XMLID_115_">
	<path id="XMLID_127_" class="st0" d="M103.5,42.8c0.3,0,0.7,0.1,1,0.2c0.7,0.3,1,0.9,1,1.6c0,0.8-0.3,1.3-1,1.6
		c-0.3,0.2-0.7,0.2-1,0.2h-1.1v1.4h-0.5v-5.1H103.5z M102.4,43.3V46h1.1c0.2,0,0.5-0.1,0.7-0.2c0.5-0.2,0.7-0.6,0.7-1.2
		c0-0.6-0.2-0.9-0.7-1.2c-0.2-0.1-0.5-0.2-0.7-0.2H102.4z"/>
	<path id="XMLID_125_" class="st0" d="M112.6,47.9h-0.6l-2.1-4l-2.1,4h-0.7l2.4-4.6v0l0.3-0.6l0.3,0.6L112.6,47.9z"/>
	<path id="XMLID_123_" class="st0" d="M117.6,44.7c0,0.7-0.2,1.1-0.7,1.5c-0.3,0.2-0.6,0.3-0.9,0.4l1.4,1.4h-0.8l-1.4-1.4l-0.5-0.5
		h0.9c0.2,0,0.5-0.1,0.7-0.2c0.4-0.2,0.7-0.6,0.7-1.2s-0.2-0.9-0.7-1.2c-0.2-0.1-0.5-0.2-0.7-0.2h-1.1v4.6H114v-5.1h0.4h1.3
		c0.3,0,0.7,0.1,1,0.2C117.3,43.4,117.6,43.9,117.6,44.7z"/>
	<path id="XMLID_121_" class="st0" d="M123.2,47.4v0.5h-3.9v-5.1h0.5v4.6H123.2z"/>
	<path id="XMLID_118_" class="st0" d="M127.4,42.7c0.7,0,1.3,0.3,1.9,0.8c0.5,0.5,0.8,1.1,0.8,1.9c0,0.7-0.3,1.3-0.8,1.9
		c-0.5,0.5-1.1,0.8-1.9,0.8c-0.7,0-1.3-0.3-1.9-0.8c-0.5-0.5-0.8-1.1-0.8-1.9c0-0.7,0.3-1.3,0.8-1.9C126.1,43,126.7,42.7,127.4,42.7
		z M127.4,47.4c0.6,0,1.1-0.2,1.5-0.6c0.4-0.4,0.6-0.9,0.6-1.5c0-0.6-0.2-1.1-0.6-1.5c-0.4-0.4-0.9-0.6-1.5-0.6
		c-0.6,0-1.1,0.2-1.5,0.6c-0.4,0.4-0.6,0.9-0.6,1.5c0,0.6,0.2,1.1,0.6,1.5C126.4,47.2,126.9,47.4,127.4,47.4z"/>
	<path id="XMLID_116_" class="st0" d="M135.3,44.7c0,0.7-0.2,1.1-0.7,1.5c-0.3,0.2-0.6,0.3-0.9,0.4l1.4,1.4h-0.8l-1.4-1.4l-0.5-0.5
		h0.9c0.2,0,0.5-0.1,0.7-0.2c0.4-0.2,0.7-0.6,0.7-1.2s-0.2-0.9-0.7-1.2c-0.2-0.1-0.5-0.2-0.7-0.2h-1.1v4.6h-0.5v-5.1h0.4h1.3
		c0.3,0,0.7,0.1,1,0.2C135,43.4,135.3,43.9,135.3,44.7z"/>
</g>
</svg>
